<svg xmlns="http://www.w3.org/2000/svg" version="1.1" id="Layer_1" x="0" y="0" xml:space="preserve" width="336.23999" height="71.099998">
  <style type="text/css" id="style2">
    .st0{fill:#ff5a00}
  </style>
  <g id="g18" transform="translate(-15.76 -25.7)">
    <path class="st0" d="M55.81 83.02c-1.05.36-2.17.56-3.34.56-3.65 0-5.41-1.92-7.01-4.8-.53-.91-.82-2.91-.82-2.91V60.08h13.5l-.71-6.3c-.35-3.1-2.98-5.45-6.1-5.45h-6.68V28.8s-4.04.27-5.39.37c-6.91.54-11.58 5.14-11.58 10.52l.03 9.08-11.95.44v4.54c0 3.49 2.83 6.32 6.31 6.32h5.63v16.17l.08 2.36c.05 10.07 8.22 18.2 18.3 18.2 3.58 0 6.92-1.03 9.74-2.81V83.02Z" id="path4" style="fill:#ff5a00"/>
    <path class="st0" d="M168.79 84.77c1.71-.79 3.02-1.83 3.91-3.1v-4c-2.73-1.84-5.85-2.76-9.34-2.76-2.23 0-3.94.48-5.15 1.43-1.21.95-1.81 2.35-1.81 4.19 0 1.72.59 3.05 1.76 4 1.18.95 2.87 1.43 5.1 1.43 1.97 0 3.81-.39 5.53-1.19m-24.36 7.34c-3.53-2.76-5.29-6.62-5.29-11.58 0-5.15 1.7-9.1 5.1-11.87 3.4-2.76 8.28-4.15 14.63-4.15 2.48 0 4.96.27 7.44.81 2.48.54 4.61 1.26 6.39 2.14v-.95c0-4.89-4-7.34-12.01-7.34-5.59 0-9.02.35-13.66 2.51 0 0-.63-4.63-.78-6.19-.34-3.48 2.4-6.08 7-6.92.03-.01.07-.01.1-.02 3.3-.6 6.73-.91 10.29-.91 8.52 0 14.95 1.7 19.31 5.1 4.35 3.4 6.53 8.15 6.53 14.25v20.92c0 5.61-1.96 6.91-6.6 6.91h-8.69l-.44-3.91c-1.71 1.65-3.88 2.95-6.48 3.91-2.61.95-5.59 1.43-8.96 1.43-5.73.01-10.35-1.37-13.88-4.14" id="path6" style="fill:#ff5a00"/>
    <path class="st0" d="M287.61 84.77c1.71-.79 3.02-1.83 3.91-3.1v-4c-2.73-1.84-5.85-2.76-9.34-2.76-2.23 0-3.94.48-5.15 1.43-1.21.95-1.81 2.35-1.81 4.19 0 1.72.59 3.05 1.76 4 1.18.95 2.87 1.43 5.1 1.43 1.97 0 3.82-.39 5.53-1.19m-24.35 7.34c-3.53-2.76-5.29-6.62-5.29-11.58 0-5.15 1.7-9.1 5.1-11.87 3.4-2.76 8.28-4.15 14.63-4.15 2.48 0 4.96.27 7.44.81 2.48.54 4.61 1.26 6.39 2.14v-.95c0-4.89-4-7.34-12.01-7.34-5.59 0-9.02.35-13.66 2.51 0 0-.63-4.63-.78-6.19-.34-3.48 2.4-6.08 7-6.92.03-.01.06-.01.1-.02 3.3-.6 6.73-.91 10.29-.91 8.52 0 14.95 1.7 19.31 5.1 4.35 3.4 6.53 8.15 6.53 14.25v20.92c0 5.61-1.96 6.91-6.6 6.91h-8.69l-.44-3.91c-1.71 1.65-3.88 2.95-6.48 3.91-2.61.95-5.59 1.43-8.96 1.43-5.73.01-10.36-1.37-13.88-4.14" id="path8" style="fill:#ff5a00"/>
    <path class="st0" d="M89.31 84.77c1.71-.79 3.02-1.83 3.91-3.1v-4c-2.73-1.84-5.85-2.76-9.34-2.76-2.23 0-3.94.48-5.15 1.43-1.21.95-1.81 2.35-1.81 4.19 0 1.72.59 3.05 1.76 4 1.18.95 2.87 1.43 5.1 1.43 1.97 0 3.81-.39 5.53-1.19m-24.36 7.34c-3.53-2.76-5.29-6.62-5.29-11.58 0-5.15 1.7-9.1 5.1-11.87 3.4-2.76 8.28-4.15 14.63-4.15 2.48 0 4.96.27 7.44.81 2.48.54 4.61 1.26 6.39 2.14v-.95c0-4.89-4-7.34-12.01-7.34-5.59 0-9.01.35-13.65 2.51 0 0-.63-4.63-.78-6.19-.34-3.48 2.4-6.08 7-6.92.03-.01.07-.01.1-.02 3.3-.6 6.73-.91 10.29-.91 8.52 0 14.95 1.7 19.31 5.1 4.35 3.4 6.53 8.15 6.53 14.25v20.92c0 5.61-1.96 6.91-6.6 6.91h-8.69l-.44-3.91c-1.72 1.65-3.88 2.95-6.48 3.91-2.61.95-5.59 1.43-8.96 1.43-5.74.01-10.36-1.37-13.89-4.14" id="path10" style="fill:#ff5a00"/>
    <path class="st0" d="m133.34 94.83-.01-69.13s-3.99.26-5.32.37c-6.82.54-11.43 5.09-11.43 10.42l-.01 58.35h16.77z" id="path12" style="fill:#ff5a00"/>
    <path class="st0" d="M232.53 80.29c-2.1 2-4.86 3-8.29 3-2.54 0-4.83-.65-6.86-1.95-2.04-1.3-3.5-3.07-4.39-5.29v-8.1c.89-2.22 2.35-3.99 4.39-5.29 2.03-1.3 4.32-1.95 6.86-1.95 3.43 0 6.2 1.02 8.29 3.05 2.09 2.03 3.15 4.8 3.15 8.29 0 3.49-1.05 6.24-3.15 8.24m17.35-20.97c-2.04-3.72-4.88-6.59-8.53-8.63-3.65-2.03-7.9-3.05-12.73-3.05-3.05 0-5.96.46-8.72 1.38-2.76.92-5.07 2.18-6.91 3.77l.03-27.09s-4 .26-5.34.37c-6.84.54-11.47 5.09-11.47 10.42v58.35h15.77l.44-4.58c4.26 4 9.66 6 16.21 6 4.77 0 8.99-1 12.68-3 3.68-2 6.54-4.83 8.58-8.48 2.03-3.65 3.05-7.9 3.05-12.73-.01-4.77-1.03-9.01-3.06-12.73" id="path14" style="fill:#ff5a00"/>
    <path class="st0" d="M349.67 83.02c-1.05.36-2.17.56-3.34.56-3.65 0-5.41-1.92-7.01-4.8-.53-.91-.82-2.91-.82-2.91V60.08H352l-.71-6.3c-.35-3.1-2.98-5.45-6.1-5.45h-6.68V28.8s-4.04.27-5.39.37c-6.91.54-11.58 5.14-11.58 10.52l.03 9.08-11.95.44v4.54c0 3.49 2.83 6.32 6.31 6.32h5.63v16.17l.08 2.36c.06 10.06 8.23 18.19 18.3 18.19 3.58 0 6.91-1.03 9.73-2.81z" id="path16" style="fill:#ff5a00"/>
  </g>
</svg>
